<svg viewBox="0 0 500 500" version="1.1" xmlns="http://www.w3.org/2000/svg" desc="Created with imagetracer.js version 1.2.6" ><path fill="rgb(0,189,0)" stroke="rgb(0,189,0)" stroke-width="0" opacity="0.7294117647058823" d="M 190 0 L 224 0 L 224 2 L 218 5 Q 210 4 206 7 L 196 7 Q 189 13 177 12 L 167 17 L 161 18 L 154 22 L 148 23 Q 144 27 137 28 L 97 54 L 59 91 L 39 118 L 37 124 L 33 128 L 28 138 L 27 143 L 23 148 Q 22 155 18 160 L 16 170 L 12 178 Q 12 189 7 196 L 7 206 Q 4 210 5 219 L 2 224 L 0 224 L 0 188 L 2 188 L 5 176 Q 8 177 7 175 L 9 168 L 9 163 L 12 160 Q 14 161 13 157 L 14 152 L 16 149 L 18 148 L 19 146 L 18 143 L 22 138 L 26 127 L 29 126 Q 28 120 32 118 Q 34 119 33 117 L 40 107 L 39 106 L 43 102 L 44 102 L 44 100 Q 47 101 46 99 L 47 96 L 50 95 Q 51 89 55 86 L 57 85 L 57 83 L 61 81 L 65 76 Q 67 77 66 75 L 68 71 L 72 69 Q 71 66 74 67 L 78 64 L 84 56 L 89 54 L 91 51 L 96 49 L 97 45 L 100 44 L 102 44 Q 104 45 103 43 L 104 40 L 112 37 Q 111 34 114 35 L 121 31 L 121 29 L 126 29 L 126 28 L 137 21 L 138 22 L 142 18 L 144 18 L 149 16 L 150 17 L 154 13 L 160 13 L 166 8 L 176 7 L 183 3 L 190 2 L 190 0 Z " /><path fill="rgb(0,189,0)" stroke="rgb(0,189,0)" stroke-width="0" opacity="0.7294117647058823" d="M 276 0 L 310 0 L 310 2 L 313 2 L 318 3 L 325 7 L 335 8 L 341 13 L 347 13 L 351 17 L 353 17 L 358 19 L 359 18 L 363 22 Q 364 19 366 23 L 370 24 L 376 29 L 379 29 L 381 32 Q 383 31 382 34 L 385 34 L 388 35 Q 387 38 390 37 Q 391 41 396 40 L 397 44 L 400 45 L 402 45 Q 404 44 403 47 L 404 49 L 407 49 L 411 53 Q 410 55 414 54 L 418 58 L 424 65 L 428 67 L 431 71 Q 433 70 432 73 L 434 76 L 439 80 Q 438 82 441 81 L 444 84 Q 442 85 445 86 L 447 88 L 452 96 Q 454 95 453 98 L 454 100 L 456 100 Q 455 103 458 102 L 461 106 Q 458 107 462 109 L 467 118 L 470 120 L 471 126 L 473 127 Q 475 126 474 129 L 482 145 L 482 147 L 484 149 L 486 151 L 487 153 L 487 157 Q 485 161 489 160 L 491 163 L 492 174 L 493 176 Q 496 175 495 178 L 499 187 L 500 188 L 500 225 Q 497 226 498 224 L 495 219 Q 496 210 493 206 L 493 196 Q 488 189 488 178 L 484 170 L 482 160 Q 478 155 477 148 L 473 143 L 472 138 L 467 128 L 463 124 L 461 118 L 457 114 L 451 103 L 441 91 L 410 59 L 373 33 L 353 23 L 347 22 L 324 12 Q 311 13 305 7 L 295 7 Q 291 4 283 5 L 276 2 L 276 0 Z " /><path fill="rgb(0,189,0)" stroke="rgb(0,189,0)" stroke-width="0" opacity="0.7294117647058823" d="M 500 231 L 500 271 L 499 271 L 498 268 L 498 233 L 500 231 Z " /><path fill="rgb(0,189,0)" stroke="rgb(0,189,0)" stroke-width="0" opacity="0.7294117647058823" d="M 500 276 L 500 313 L 497 315 L 495 324 Q 492 323 493 326 L 492 327 L 491 338 L 489 340 Q 485 339 487 344 L 486 349 L 485 351 L 482 353 L 481 355 L 482 358 L 478 363 L 474 373 L 471 375 Q 472 380 469 382 Q 466 381 467 384 L 460 394 L 461 395 L 458 398 L 456 398 L 456 400 Q 453 399 454 402 L 453 404 L 450 406 Q 449 411 446 414 L 443 416 L 444 417 L 439 419 L 436 424 Q 433 423 434 426 L 432 429 L 428 432 Q 429 434 427 433 L 422 437 L 417 444 L 411 446 L 410 449 L 404 451 L 403 455 L 401 456 L 399 456 Q 396 455 397 458 L 396 460 L 388 463 Q 389 466 387 465 L 384 467 L 382 467 Q 383 469 381 468 L 379 471 L 376 471 L 364 479 L 363 478 L 359 482 L 357 482 L 352 484 L 351 483 L 347 487 L 341 487 L 335 492 L 325 493 L 318 497 L 310 498 L 310 500 L 275 500 L 276 498 L 283 495 Q 291 496 295 493 L 305 493 Q 311 488 324 488 L 347 478 L 353 477 L 373 467 L 410 441 L 441 410 L 461 383 L 463 377 L 467 373 L 472 363 L 473 358 L 477 353 L 478 347 L 482 341 L 483 334 L 487 326 Q 488 313 493 305 L 493 295 L 495 289 L 495 284 L 500 276 Z " /><path fill="rgb(0,189,0)" stroke="rgb(0,189,0)" stroke-width="0" opacity="0.7294117647058823" d="M 0 278 Q 4 277 3 280 L 5 284 L 5 289 L 7 295 L 7 305 Q 12 311 12 323 Q 17 330 18 341 L 22 347 L 23 353 L 27 358 L 28 363 L 33 373 L 37 377 L 39 383 L 43 387 L 49 398 L 59 410 L 91 441 L 128 467 L 148 477 L 154 478 L 177 488 Q 189 488 196 493 L 206 493 Q 210 496 218 495 L 226 500 L 190 500 Q 191 497 188 498 L 183 497 L 176 493 L 166 492 L 160 487 L 154 487 L 150 483 L 148 483 L 143 481 L 142 482 L 138 478 Q 136 480 135 477 L 131 476 L 125 471 L 121 471 L 120 468 Q 117 469 118 467 L 116 466 L 112 465 Q 113 462 111 463 Q 109 459 104 460 L 103 456 L 101 455 L 99 455 Q 96 456 97 454 L 96 451 L 94 451 L 89 448 Q 90 445 87 446 L 82 443 L 77 435 L 72 433 L 70 429 Q 67 430 68 428 L 66 424 L 61 421 Q 62 418 60 419 L 56 417 Q 58 415 56 414 L 53 413 L 49 404 Q 46 405 47 403 L 46 400 L 44 400 Q 45 397 43 398 L 39 395 Q 41 393 38 392 L 33 382 L 30 381 L 29 375 L 28 373 Q 25 374 26 372 L 18 356 L 18 354 L 17 351 L 14 350 L 13 348 L 13 344 Q 15 339 12 340 L 9 338 L 8 327 L 7 324 Q 4 325 5 323 L 2 312 L 0 313 L 0 278 Z " /><path fill="rgb(0,189,0)" stroke="rgb(0,189,0)" stroke-width="0" opacity="0.7294117647058823" d="M 233 498 L 268 498 L 270 500 L 231 500 L 231 499 L 233 498 Z " /><path fill="rgb(0,189,1)" stroke="rgb(0,189,1)" stroke-width="0" opacity="0.9921568627450981" d="M 224 0 L 276 0 L 276 2 L 283 5 Q 291 4 295 7 L 305 7 Q 311 13 324 12 L 347 22 L 353 23 L 373 33 L 410 59 L 441 91 L 461 118 L 463 124 L 467 128 L 472 138 L 473 143 L 477 148 Q 478 155 482 160 L 483 167 L 487 175 Q 488 187 493 196 L 493 206 Q 496 210 495 219 L 498 225 Q 502 224 500 231 L 498 233 L 498 268 Q 501 270 500 276 L 495 284 L 495 289 L 493 295 L 493 305 Q 488 313 487 326 L 483 334 L 482 341 L 478 347 L 477 353 L 473 358 L 472 363 L 467 373 L 463 377 L 461 383 L 457 387 L 451 398 L 441 410 L 410 441 L 373 467 L 353 477 L 347 478 L 324 488 Q 311 488 305 493 L 295 493 Q 291 496 283 495 L 274 500 L 271 500 L 268 498 L 233 498 Q 231 501 227 500 L 218 495 Q 210 496 206 493 L 196 493 Q 189 488 177 488 L 154 478 L 148 477 L 128 467 L 91 441 L 59 410 L 39 383 L 37 377 L 33 373 L 28 363 L 27 358 L 23 353 L 22 347 L 18 341 L 17 334 L 13 326 Q 12 313 7 305 L 7 295 L 3 278 L 0 278 L 0 224 L 4 222 L 5 211 L 7 206 L 7 196 Q 12 189 12 178 L 16 170 L 18 160 Q 22 155 23 148 L 27 143 L 28 138 L 33 128 L 37 124 L 39 118 L 43 114 L 49 103 L 59 91 L 91 59 L 117 40 L 148 23 L 154 22 L 177 12 Q 189 13 196 7 L 206 7 Q 210 4 218 5 L 224 2 L 224 0 Z M 178 120 L 177 126 L 174 125 Q 173 130 176 133 L 174 143 L 173 142 L 171 143 L 173 146 L 170 151 L 149 171 L 149 173 L 144 182 L 141 181 L 143 184 L 142 187 L 143 189 L 141 189 L 142 193 L 141 193 L 139 190 L 138 190 Q 136 196 139 198 L 138 203 L 139 205 L 142 203 L 141 205 Q 142 209 150 208 L 154 202 L 156 203 Q 157 198 154 197 L 154 192 Q 157 190 156 186 L 158 186 L 157 184 L 162 177 L 168 172 Q 179 163 186 149 Q 185 146 188 147 L 187 146 L 189 140 Q 188 135 191 136 L 192 138 L 192 125 L 191 125 L 188 124 L 188 120 L 178 120 Z M 320 120 L 317 122 L 313 121 L 308 123 L 306 122 L 302 124 L 299 123 Q 297 126 296 124 L 293 126 L 291 125 L 289 127 L 288 126 L 286 128 L 285 127 L 281 129 Q 277 128 278 131 L 276 131 Q 272 130 273 133 L 272 132 L 271 134 L 270 133 L 269 135 L 268 134 L 267 136 L 266 135 L 265 137 L 263 137 Q 264 140 260 138 L 260 140 L 259 139 L 253 143 L 251 146 Q 247 145 246 149 Q 247 151 244 150 L 231 163 L 232 164 L 230 165 Q 225 167 228 169 L 227 169 L 225 172 Q 221 173 224 175 L 223 175 Q 220 176 222 178 L 221 178 L 221 180 L 220 180 L 220 182 Q 217 181 218 184 L 218 186 L 217 186 L 217 188 Q 214 187 215 191 L 214 196 Q 211 195 212 198 Q 215 199 211 201 L 212 203 L 210 203 L 211 206 L 209 209 L 210 211 L 208 214 L 209 217 L 207 222 L 207 223 L 92 223 L 91 226 L 90 226 L 85 233 L 85 308 L 86 309 L 86 317 L 88 317 L 87 319 L 88 322 L 87 325 L 89 325 L 91 331 L 90 333 L 92 333 L 101 348 L 108 353 L 111 357 L 112 356 L 232 356 L 235 354 L 244 343 L 248 340 L 247 339 L 248 337 L 251 335 L 250 333 L 252 333 L 251 331 L 252 329 L 255 330 L 256 329 L 256 331 Q 257 333 259 331 L 259 333 Q 260 335 262 333 L 262 335 L 272 339 L 274 339 L 274 341 L 276 340 L 276 342 L 286 345 L 288 344 L 291 346 Q 292 343 294 347 L 296 346 L 299 348 L 302 347 L 307 349 L 312 348 L 327 348 L 328 349 Q 334 350 336 347 L 339 348 L 343 346 L 345 347 L 348 345 L 351 346 L 352 344 L 354 345 Q 355 341 357 344 Q 359 345 358 343 L 361 342 Q 364 343 363 341 L 365 341 L 370 338 Q 372 339 371 337 Q 373 338 375 335 Q 377 336 376 334 Q 378 335 380 332 Q 382 333 381 331 L 383 331 L 383 330 L 385 330 L 385 329 L 387 329 L 387 328 L 389 328 L 389 327 L 391 327 L 391 326 Q 393 327 395 324 L 396 325 L 398 323 L 399 324 L 402 322 Q 410 320 413 324 L 415 323 L 419 325 L 421 325 L 421 327 L 423 327 Q 422 329 425 328 Q 426 331 428 329 L 428 331 Q 429 334 433 333 L 437 338 L 436 339 L 440 341 L 439 343 L 444 346 L 448 344 Q 449 336 446 334 L 446 297 L 447 296 L 447 278 L 446 277 L 446 268 Q 449 266 448 261 Q 445 259 449 258 L 448 256 L 453 250 Q 455 251 454 249 L 456 249 L 462 246 L 465 247 L 471 247 Q 473 244 479 245 L 477 239 L 402 239 L 401 240 L 332 240 L 331 241 L 329 241 L 329 245 L 333 247 L 344 247 L 345 246 Q 350 245 352 248 L 356 247 Q 357 250 359 248 L 365 255 L 365 257 Q 368 258 366 260 L 368 263 L 367 266 L 369 272 L 369 315 L 367 318 L 368 322 L 366 325 L 367 327 L 366 327 L 366 329 L 365 329 L 365 331 L 360 335 Q 361 338 357 336 L 357 338 L 356 337 L 353 338 Q 351 341 350 339 L 346 341 L 337 341 L 335 339 L 332 340 L 331 338 L 326 336 Q 322 337 323 335 L 320 333 L 318 330 L 315 327 L 315 326 L 313 324 L 313 323 L 312 322 L 312 321 L 311 320 L 311 319 L 310 318 L 310 317 L 309 313 L 307 313 L 308 310 L 306 310 L 307 308 L 304 303 L 305 301 Q 301 299 304 298 L 302 295 L 303 293 L 301 290 L 302 288 L 300 285 L 301 283 Q 302 278 299 278 L 300 275 L 298 270 L 299 267 Q 300 261 297 260 L 298 255 Q 299 246 296 243 L 296 221 L 298 217 Q 299 212 297 211 Q 296 206 299 205 L 298 202 L 300 198 L 299 195 L 301 192 L 300 190 L 302 186 Q 299 184 303 183 L 302 181 L 305 175 L 305 173 Q 307 174 306 172 L 306 170 Q 308 171 307 168 L 309 164 L 308 163 L 310 162 L 309 161 L 311 160 L 310 159 L 312 158 L 311 157 L 313 156 L 312 155 L 314 154 L 314 152 Q 317 153 315 149 L 317 149 L 317 146 L 319 146 L 326 138 L 328 138 L 329 136 L 331 136 L 331 135 L 333 135 L 333 134 L 335 134 L 338 133 Q 339 129 341 132 L 344 130 L 347 131 L 355 131 L 356 130 Q 360 129 362 132 L 365 131 Q 367 130 366 133 L 369 133 L 373 133 L 375 135 L 376 134 L 378 136 L 379 135 L 379 137 L 381 136 L 381 138 L 383 137 L 383 139 L 385 138 L 385 140 L 387 140 Q 386 142 390 141 L 390 143 L 393 143 L 393 145 Q 395 149 397 146 L 398 149 L 405 154 L 409 160 Q 411 159 410 163 L 413 164 Q 412 167 415 169 Q 414 171 417 170 L 417 173 L 419 173 Q 417 175 420 177 Q 419 179 422 178 L 421 180 L 423 180 L 422 182 L 424 182 L 423 184 L 425 184 L 424 186 L 426 186 L 425 188 L 427 188 L 426 190 L 428 190 L 427 192 L 428 194 Q 431 195 429 197 L 431 197 Q 429 199 432 201 L 431 202 L 434 211 L 437 216 L 436 218 L 443 219 L 443 138 L 444 137 L 444 123 Q 443 119 439 120 L 435 125 L 435 129 L 433 132 L 434 133 Q 431 132 432 136 L 432 138 L 430 138 L 430 142 L 429 142 L 427 145 L 426 144 L 425 146 L 424 145 L 422 146 L 418 145 L 416 146 L 415 145 L 413 145 Q 414 142 411 143 L 409 143 L 408 142 L 407 142 L 406 141 L 405 141 L 404 139 L 398 137 L 396 137 L 395 136 L 394 136 L 393 135 L 392 135 L 391 134 L 390 134 L 389 133 L 387 133 Q 388 130 385 131 L 382 131 Q 383 128 380 129 L 377 129 Q 378 126 376 127 L 374 128 Q 375 125 373 126 L 369 126 L 367 124 L 365 125 L 362 123 Q 360 125 359 122 L 356 123 L 353 121 L 350 122 L 344 120 Q 338 119 337 121 L 320 120 Z M 212 149 Q 213 153 211 152 L 207 157 L 204 158 Q 203 161 206 163 L 206 167 L 201 175 L 199 176 L 192 184 L 188 187 Q 189 189 186 191 Q 187 193 185 192 L 185 194 L 184 196 L 185 198 L 183 198 L 184 202 L 183 202 Q 181 200 180 203 L 181 210 L 183 209 L 187 214 L 192 214 L 197 210 L 198 211 L 196 207 L 196 202 L 200 194 L 216 177 Q 215 174 218 175 L 217 174 L 218 172 L 217 170 L 219 169 L 218 167 L 220 167 Q 222 166 221 170 L 222 170 Q 223 165 221 164 L 221 157 L 219 156 L 217 152 Q 214 153 215 151 L 212 149 Z M 154 207 L 152 209 L 154 209 L 154 207 Z M 84 318 L 85 322 L 86 319 L 84 318 Z M 66 366 L 66 368 L 64 369 Q 62 367 61 370 L 61 383 L 64 383 L 68 390 L 73 393 L 76 398 L 78 397 L 88 402 L 88 404 L 90 403 L 91 404 L 90 404 L 91 406 L 252 406 L 253 405 L 251 404 Q 262 401 270 394 Q 278 387 281 376 Q 280 369 276 367 L 275 367 L 273 366 L 70 366 L 69 367 L 66 366 Z M 85 404 L 86 405 L 87 406 Q 88 403 85 404 Z M 255 404 L 256 406 L 258 405 L 255 404 Z " /><path fill="rgb(0,189,1)" stroke="rgb(0,189,1)" stroke-width="0" opacity="0.9921568627450981" d="M 209 225 L 251 225 L 256 230 L 256 243 L 258 244 L 279 244 Q 285 246 289 252 L 291 254 Q 293 253 292 256 L 289 255 L 285 248 L 279 245 L 258 245 L 255 243 L 255 230 L 253 227 L 251 226 L 209 226 L 209 225 Z " /><path fill="rgb(0,189,1)" stroke="rgb(0,189,1)" stroke-width="0" opacity="0.9921568627450981" d="M 275 257 L 279 261 L 276 258 L 275 257 Z " /><path fill="rgb(0,189,1)" stroke="rgb(0,189,1)" stroke-width="0" opacity="0.9921568627450981" d="M 256 259 L 256 303 L 255 303 L 256 259 Z " /><path fill="rgb(0,189,1)" stroke="rgb(0,189,1)" stroke-width="0" opacity="0.9921568627450981" d="M 280 262 L 280 273 L 279 273 L 280 262 Z " /><path fill="rgb(0,189,1)" stroke="rgb(0,189,1)" stroke-width="0" opacity="0.9921568627450981" d="M 279 274 L 279 281 L 278 284 L 277 281 L 279 274 Z " /><path fill="rgb(0,189,1)" stroke="rgb(0,189,1)" stroke-width="0" opacity="0.9921568627450981" d="M 290 282 Q 294 281 292 286 Q 289 285 290 289 L 289 289 L 290 282 Z " /><path fill="rgb(0,189,1)" stroke="rgb(0,189,1)" stroke-width="0" opacity="0.9921568627450981" d="M 277 285 L 277 289 Q 274 297 268 302 L 258 306 L 257 304 L 259 305 Q 267 302 272 297 L 277 285 Z " /><path fill="rgb(0,189,1)" stroke="rgb(0,189,1)" stroke-width="0" opacity="0.9921568627450981" d="M 289 290 L 289 294 Q 285 305 276 312 L 267 316 L 267 315 Q 276 312 282 305 L 289 290 Z " /><path fill="rgb(0,189,1)" stroke="rgb(0,189,1)" stroke-width="0" opacity="0.9921568627450981" d="M 264 316 L 265 317 L 255 319 L 253 327 L 252 325 L 253 321 L 256 318 L 264 316 Z " /><path fill="rgb(0,190,0)" stroke="rgb(0,190,0)" stroke-width="0" opacity="1" d="M 178 120 L 188 120 L 188 124 L 191 125 L 192 125 L 192 138 L 191 136 Q 188 135 189 140 L 188 143 L 190 144 L 189 142 L 191 143 L 190 146 L 188 143 L 187 146 L 189 149 L 188 149 Q 189 146 186 147 L 184 153 L 186 154 L 188 150 L 188 152 L 186 155 L 183 154 L 185 157 L 184 158 L 181 157 L 180 159 L 182 161 L 180 159 L 177 161 L 186 147 L 189 136 L 189 126 L 186 121 L 181 121 L 180 123 L 177 127 L 177 137 L 173 148 L 150 172 L 144 185 L 141 181 L 144 182 L 142 179 L 145 180 L 143 177 L 146 178 L 144 175 L 147 176 L 148 174 L 145 173 Q 147 168 149 171 L 150 171 Q 146 168 151 166 L 153 168 L 163 158 L 160 157 L 164 153 Q 165 155 166 153 Q 164 151 167 150 Q 168 154 170 151 L 168 148 L 171 149 L 172 148 L 171 145 L 169 146 L 172 145 L 171 143 L 173 142 L 174 143 L 176 133 Q 173 130 174 125 L 177 126 L 177 125 L 175 122 L 176 122 L 178 124 L 178 120 Z " /><path fill="rgb(0,190,0)" stroke="rgb(0,190,0)" stroke-width="0" opacity="1" d="M 320 120 L 327 121 L 320 121 L 320 120 Z " /><path fill="rgb(0,190,0)" stroke="rgb(0,190,0)" stroke-width="0" opacity="1" d="M 338 120 L 344 121 L 338 121 L 338 120 Z " /><path fill="rgb(0,190,0)" stroke="rgb(0,190,0)" stroke-width="0" opacity="1" d="M 439 120 L 442 121 L 439 121 L 439 120 Z " /><path fill="rgb(0,190,0)" stroke="rgb(0,190,0)" stroke-width="0" opacity="1" d="M 311 121 L 313 122 L 311 122 L 311 121 Z " /><path fill="rgb(0,190,0)" stroke="rgb(0,190,0)" stroke-width="0" opacity="1" d="M 351 121 L 353 122 L 351 122 L 351 121 Z " /><path fill="rgb(0,190,0)" stroke="rgb(0,190,0)" stroke-width="0" opacity="1" d="M 304 122 L 306 123 L 304 123 L 304 122 Z " /><path fill="rgb(0,190,0)" stroke="rgb(0,190,0)" stroke-width="0" opacity="1" d="M 357 122 L 359 123 L 357 123 L 357 122 Z " /><path fill="rgb(0,190,0)" stroke="rgb(0,190,0)" stroke-width="0" opacity="1" d="M 444 122 L 444 137 L 443 137 L 444 122 Z " /><path fill="rgb(0,190,0)" stroke="rgb(0,190,0)" stroke-width="0" opacity="1" d="M 347 130 L 355 131 L 347 131 L 347 130 Z " /><path fill="rgb(0,190,0)" stroke="rgb(0,190,0)" stroke-width="0" opacity="1" d="M 362 131 L 364 132 L 362 132 L 362 131 Z " /><path fill="rgb(0,190,0)" stroke="rgb(0,190,0)" stroke-width="0" opacity="1" d="M 367 132 L 369 133 L 367 133 L 367 132 Z " /><path fill="rgb(0,190,0)" stroke="rgb(0,190,0)" stroke-width="0" opacity="1" d="M 329 136 L 328 138 L 329 136 Z " /><path fill="rgb(0,190,0)" stroke="rgb(0,190,0)" stroke-width="0" opacity="1" d="M 326 138 L 319 146 L 326 138 Z " /><path fill="rgb(0,190,0)" stroke="rgb(0,190,0)" stroke-width="0" opacity="1" d="M 259 139 L 258 141 L 259 139 Z " /><path fill="rgb(0,190,0)" stroke="rgb(0,190,0)" stroke-width="0" opacity="1" d="M 256 141 L 255 143 L 256 141 Z " /><path fill="rgb(0,190,0)" stroke="rgb(0,190,0)" stroke-width="0" opacity="1" d="M 429 142 L 428 144 L 429 142 Z " /><path fill="rgb(0,190,0)" stroke="rgb(0,190,0)" stroke-width="0" opacity="1" d="M 253 143 L 252 145 L 253 143 Z " /><path fill="rgb(0,190,0)" stroke="rgb(0,190,0)" stroke-width="0" opacity="1" d="M 394 144 L 396 147 L 394 144 Z " /><path fill="rgb(0,190,0)" stroke="rgb(0,190,0)" stroke-width="0" opacity="1" d="M 249 146 L 247 149 L 249 146 Z " /><path fill="rgb(0,190,0)" stroke="rgb(0,190,0)" stroke-width="0" opacity="1" d="M 399 148 L 404 154 L 399 148 Z " /><path fill="rgb(0,190,0)" stroke="rgb(0,190,0)" stroke-width="0" opacity="1" d="M 212 149 L 215 151 Q 214 153 217 152 Q 218 154 219 152 L 219 150 L 221 153 Q 219 151 218 154 L 219 156 Q 222 157 221 155 L 222 155 L 221 164 Q 223 165 222 170 L 221 170 Q 222 166 219 167 L 219 169 L 218 168 L 219 167 L 219 157 L 217 153 L 213 152 L 208 156 L 207 166 L 204 158 L 207 157 L 205 154 L 208 155 L 211 152 Q 213 153 212 149 Z " /><path fill="rgb(0,190,0)" stroke="rgb(0,190,0)" stroke-width="0" opacity="1" d="M 244 150 L 232 163 L 244 150 Z " /><path fill="rgb(0,190,0)" stroke="rgb(0,190,0)" stroke-width="0" opacity="1" d="M 407 157 L 409 160 L 407 157 Z " /><path fill="rgb(0,190,0)" stroke="rgb(0,190,0)" stroke-width="0" opacity="1" d="M 177 162 L 178 165 L 179 165 L 175 167 Q 177 168 175 169 Q 173 167 172 170 Q 174 171 172 172 Q 170 168 168 172 L 162 177 L 160 180 L 163 181 L 162 182 L 159 181 L 158 183 L 161 184 L 158 185 L 159 187 L 156 185 Q 160 176 167 171 L 177 162 Z " /><path fill="rgb(0,190,0)" stroke="rgb(0,190,0)" stroke-width="0" opacity="1" d="M 411 162 L 412 164 L 411 162 Z " /><path fill="rgb(0,190,0)" stroke="rgb(0,190,0)" stroke-width="0" opacity="1" d="M 204 164 L 205 166 L 204 164 Z " /><path fill="rgb(0,190,0)" stroke="rgb(0,190,0)" stroke-width="0" opacity="1" d="M 230 165 L 228 168 L 230 165 Z " /><path fill="rgb(0,190,0)" stroke="rgb(0,190,0)" stroke-width="0" opacity="1" d="M 203 166 L 205 169 L 206 167 L 206 169 L 197 180 Q 194 179 195 182 Q 187 187 185 197 L 183 194 L 182 196 L 183 197 L 181 195 L 183 193 L 185 195 L 183 192 L 185 192 Q 187 193 186 191 Q 188 189 186 188 L 184 189 Q 186 184 188 187 L 189 187 Q 185 185 189 183 Q 190 187 192 184 L 199 176 L 200 176 L 200 174 L 201 175 L 203 172 L 202 169 L 204 171 L 203 166 Z " /><path fill="rgb(0,190,0)" stroke="rgb(0,190,0)" stroke-width="0" opacity="1" d="M 414 166 L 415 168 L 414 166 Z " /><path fill="rgb(0,190,0)" stroke="rgb(0,190,0)" stroke-width="0" opacity="1" d="M 227 169 L 226 171 L 227 169 Z " /><path fill="rgb(0,190,0)" stroke="rgb(0,190,0)" stroke-width="0" opacity="1" d="M 218 170 L 220 174 L 217 173 L 219 177 L 218 177 Q 219 174 216 175 L 215 178 Q 219 179 216 181 L 213 180 L 212 182 L 215 183 Q 213 187 211 183 L 200 194 L 199 196 L 202 197 L 201 198 L 198 197 L 200 201 L 199 201 L 198 198 L 197 201 L 199 204 L 198 204 L 197 201 L 196 207 L 198 211 L 197 210 L 192 214 L 194 216 L 190 214 L 195 210 Q 194 201 197 197 L 212 181 L 218 170 Z " /><path fill="rgb(0,190,0)" stroke="rgb(0,190,0)" stroke-width="0" opacity="1" d="M 220 170 L 221 172 L 220 170 Z " /><path fill="rgb(0,190,0)" stroke="rgb(0,190,0)" stroke-width="0" opacity="1" d="M 225 172 L 224 174 L 225 172 Z " /><path fill="rgb(0,190,0)" stroke="rgb(0,190,0)" stroke-width="0" opacity="1" d="M 419 174 L 420 176 L 419 174 Z " /><path fill="rgb(0,190,0)" stroke="rgb(0,190,0)" stroke-width="0" opacity="1" d="M 223 175 L 222 177 L 223 175 Z " /><path fill="rgb(0,190,0)" stroke="rgb(0,190,0)" stroke-width="0" opacity="1" d="M 193 178 L 191 181 L 193 178 Z " /><path fill="rgb(0,190,0)" stroke="rgb(0,190,0)" stroke-width="0" opacity="1" d="M 141 183 L 143 188 L 142 188 L 141 185 L 140 187 L 139 186 L 141 183 Z " /><path fill="rgb(0,190,0)" stroke="rgb(0,190,0)" stroke-width="0" opacity="1" d="M 156 186 L 158 192 L 157 192 L 156 189 L 155 191 L 154 190 L 156 186 Z " /><path fill="rgb(0,190,0)" stroke="rgb(0,190,0)" stroke-width="0" opacity="1" d="M 212 186 L 211 188 L 212 186 Z " /><path fill="rgb(0,190,0)" stroke="rgb(0,190,0)" stroke-width="0" opacity="1" d="M 139 189 L 141 194 L 141 204 L 145 207 Q 151 208 152 205 L 153 203 L 153 205 Q 152 209 145 208 L 140 204 L 138 205 L 139 198 L 138 197 L 139 189 Z " /><path fill="rgb(0,190,0)" stroke="rgb(0,190,0)" stroke-width="0" opacity="1" d="M 142 189 L 142 192 L 141 192 L 142 189 Z " /><path fill="rgb(0,190,0)" stroke="rgb(0,190,0)" stroke-width="0" opacity="1" d="M 154 192 Q 153 197 156 199 L 156 203 L 153 202 L 154 192 Z " /><path fill="rgb(0,190,0)" stroke="rgb(0,190,0)" stroke-width="0" opacity="1" d="M 300 195 L 300 198 L 299 198 L 300 195 Z " /><path fill="rgb(0,190,0)" stroke="rgb(0,190,0)" stroke-width="0" opacity="1" d="M 184 198 L 184 201 L 183 201 L 184 198 Z " /><path fill="rgb(0,190,0)" stroke="rgb(0,190,0)" stroke-width="0" opacity="1" d="M 182 201 Q 184 202 183 209 L 187 213 L 188 214 L 185 216 L 186 214 L 184 211 L 181 213 L 183 209 L 181 210 L 180 203 L 182 201 Z " /><path fill="rgb(0,190,0)" stroke="rgb(0,190,0)" stroke-width="0" opacity="1" d="M 299 202 L 299 205 L 298 205 L 299 202 Z " /><path fill="rgb(0,190,0)" stroke="rgb(0,190,0)" stroke-width="0" opacity="1" d="M 155 206 L 154 208 Q 155 210 153 209 L 155 206 Z " /><path fill="rgb(0,190,0)" stroke="rgb(0,190,0)" stroke-width="0" opacity="1" d="M 298 211 L 298 217 L 297 217 L 298 211 Z " /><path fill="rgb(0,190,0)" stroke="rgb(0,190,0)" stroke-width="0" opacity="1" d="M 197 212 L 197 214 L 195 215 L 197 212 Z " /><path fill="rgb(0,190,0)" stroke="rgb(0,190,0)" stroke-width="0" opacity="1" d="M 209 213 L 209 216 L 208 216 L 209 213 Z " /><path fill="rgb(0,190,0)" stroke="rgb(0,190,0)" stroke-width="0" opacity="1" d="M 208 221 L 208 226 L 92 226 L 87 230 L 86 234 L 87 235 L 87 317 L 86 317 L 86 309 L 85 308 L 85 233 L 89 227 L 88 224 L 91 226 L 92 223 L 207 223 L 208 221 Z " /><path fill="rgb(0,190,0)" stroke="rgb(0,190,0)" stroke-width="0" opacity="1" d="M 86 225 L 86 227 L 84 228 L 86 225 Z " /><path fill="rgb(0,190,0)" stroke="rgb(0,190,0)" stroke-width="0" opacity="1" d="M 402 239 L 477 240 L 402 240 L 402 239 Z " /><path fill="rgb(0,190,0)" stroke="rgb(0,190,0)" stroke-width="0" opacity="1" d="M 330 241 L 330 245 L 329 245 L 330 241 Z " /><path fill="rgb(0,190,0)" stroke="rgb(0,190,0)" stroke-width="0" opacity="1" d="M 298 246 L 298 255 L 297 255 L 298 246 Z " /><path fill="rgb(0,190,0)" stroke="rgb(0,190,0)" stroke-width="0" opacity="1" d="M 333 246 L 344 247 L 333 247 L 333 246 Z " /><path fill="rgb(0,190,0)" stroke="rgb(0,190,0)" stroke-width="0" opacity="1" d="M 465 246 L 471 247 L 465 247 L 465 246 Z " /><path fill="rgb(0,190,0)" stroke="rgb(0,190,0)" stroke-width="0" opacity="1" d="M 352 247 L 354 248 L 352 248 L 352 247 Z " /><path fill="rgb(0,190,0)" stroke="rgb(0,190,0)" stroke-width="0" opacity="1" d="M 458 247 L 460 248 L 458 248 L 458 247 Z " /><path fill="rgb(0,190,0)" stroke="rgb(0,190,0)" stroke-width="0" opacity="1" d="M 361 249 L 365 254 L 361 249 Z " /><path fill="rgb(0,190,0)" stroke="rgb(0,190,0)" stroke-width="0" opacity="1" d="M 453 249 L 454 250 L 451 252 L 453 249 Z " /><path fill="rgb(0,190,0)" stroke="rgb(0,190,0)" stroke-width="0" opacity="1" d="M 448 260 L 448 265 L 447 265 L 448 260 Z " /><path fill="rgb(0,190,0)" stroke="rgb(0,190,0)" stroke-width="0" opacity="1" d="M 299 262 L 299 267 L 298 267 L 299 262 Z " /><path fill="rgb(0,190,0)" stroke="rgb(0,190,0)" stroke-width="0" opacity="1" d="M 368 265 L 368 268 L 367 268 L 368 265 Z " /><path fill="rgb(0,190,0)" stroke="rgb(0,190,0)" stroke-width="0" opacity="1" d="M 300 272 L 300 275 L 299 275 L 300 272 Z " /><path fill="rgb(0,190,0)" stroke="rgb(0,190,0)" stroke-width="0" opacity="1" d="M 447 277 L 447 296 L 446 296 L 447 277 Z " /><path fill="rgb(0,190,0)" stroke="rgb(0,190,0)" stroke-width="0" opacity="1" d="M 301 279 L 301 283 L 300 283 L 301 279 Z " /><path fill="rgb(0,190,0)" stroke="rgb(0,190,0)" stroke-width="0" opacity="1" d="M 368 317 L 368 321 L 367 321 L 368 317 Z " /><path fill="rgb(0,190,0)" stroke="rgb(0,190,0)" stroke-width="0" opacity="1" d="M 84 318 L 86 319 L 85 322 L 84 318 Z " /><path fill="rgb(0,190,0)" stroke="rgb(0,190,0)" stroke-width="0" opacity="1" d="M 88 318 Q 92 340 107 352 L 111 355 L 232 355 L 240 348 L 253 327 L 255 330 L 252 329 L 254 332 L 252 332 L 252 333 L 250 333 L 252 337 L 251 337 Q 252 334 250 335 L 247 339 L 249 341 L 247 340 L 248 343 Q 246 339 244 343 L 246 346 L 244 344 L 241 347 L 235 354 L 232 356 L 234 358 L 232 356 L 112 356 L 109 358 L 110 356 L 106 352 Q 104 356 102 353 L 103 350 L 101 348 L 99 344 L 96 346 Q 100 344 97 343 L 95 338 L 93 339 L 94 337 L 93 335 L 90 337 L 92 333 L 90 334 L 91 332 L 90 328 L 88 331 L 89 332 L 87 330 Q 90 328 89 325 L 87 326 L 88 324 L 88 318 Z " /><path fill="rgb(0,190,0)" stroke="rgb(0,190,0)" stroke-width="0" opacity="1" d="M 314 324 L 315 326 L 314 324 Z " /><path fill="rgb(0,190,0)" stroke="rgb(0,190,0)" stroke-width="0" opacity="1" d="M 316 327 L 318 330 L 316 327 Z " /><path fill="rgb(0,190,0)" stroke="rgb(0,190,0)" stroke-width="0" opacity="1" d="M 426 328 L 427 330 L 426 328 Z " /><path fill="rgb(0,190,0)" stroke="rgb(0,190,0)" stroke-width="0" opacity="1" d="M 257 330 L 258 332 L 257 330 Z " /><path fill="rgb(0,190,0)" stroke="rgb(0,190,0)" stroke-width="0" opacity="1" d="M 429 330 L 431 333 L 429 330 Z " /><path fill="rgb(0,190,0)" stroke="rgb(0,190,0)" stroke-width="0" opacity="1" d="M 364 331 L 361 335 L 364 331 Z " /><path fill="rgb(0,190,0)" stroke="rgb(0,190,0)" stroke-width="0" opacity="1" d="M 260 332 L 261 334 L 260 332 Z " /><path fill="rgb(0,190,0)" stroke="rgb(0,190,0)" stroke-width="0" opacity="1" d="M 379 332 L 378 334 L 379 332 Z " /><path fill="rgb(0,190,0)" stroke="rgb(0,190,0)" stroke-width="0" opacity="1" d="M 322 333 L 323 335 L 322 333 Z " /><path fill="rgb(0,190,0)" stroke="rgb(0,190,0)" stroke-width="0" opacity="1" d="M 374 335 L 373 337 L 374 335 Z " /><path fill="rgb(0,190,0)" stroke="rgb(0,190,0)" stroke-width="0" opacity="1" d="M 448 336 L 448 344 L 447 344 L 448 336 Z " /><path fill="rgb(0,190,0)" stroke="rgb(0,190,0)" stroke-width="0" opacity="1" d="M 437 338 L 439 341 L 437 338 Z " /><path fill="rgb(0,190,0)" stroke="rgb(0,190,0)" stroke-width="0" opacity="1" d="M 333 339 L 335 340 L 333 340 L 333 339 Z " /><path fill="rgb(0,190,0)" stroke="rgb(0,190,0)" stroke-width="0" opacity="1" d="M 348 339 L 350 340 L 348 340 L 348 339 Z " /><path fill="rgb(0,190,0)" stroke="rgb(0,190,0)" stroke-width="0" opacity="1" d="M 94 341 L 95 343 L 94 341 Z " /><path fill="rgb(0,190,0)" stroke="rgb(0,190,0)" stroke-width="0" opacity="1" d="M 440 342 L 441 344 L 440 342 Z " /><path fill="rgb(0,190,0)" stroke="rgb(0,190,0)" stroke-width="0" opacity="1" d="M 299 347 L 301 348 L 299 348 L 299 347 Z " /><path fill="rgb(0,190,0)" stroke="rgb(0,190,0)" stroke-width="0" opacity="1" d="M 339 347 L 341 348 L 339 348 L 339 347 Z " /><path fill="rgb(0,190,0)" stroke="rgb(0,190,0)" stroke-width="0" opacity="1" d="M 307 348 L 311 349 L 307 349 L 307 348 Z " /><path fill="rgb(0,190,0)" stroke="rgb(0,190,0)" stroke-width="0" opacity="1" d="M 328 348 L 333 349 L 328 349 L 328 348 Z " /><path fill="rgb(0,190,0)" stroke="rgb(0,190,0)" stroke-width="0" opacity="1" d="M 100 349 L 101 351 L 100 349 Z " /><path fill="rgb(0,190,0)" stroke="rgb(0,190,0)" stroke-width="0" opacity="1" d="M 65 365 L 69 367 L 70 366 L 273 366 L 275 367 L 277 366 L 276 368 L 280 371 L 282 370 L 280 373 L 276 368 L 67 368 Q 65 371 62 370 L 62 381 L 64 381 L 72 392 L 81 399 L 80 399 Q 78 395 76 399 L 77 400 Q 74 399 76 398 L 76 396 L 74 397 Q 76 395 74 394 L 72 395 L 73 393 L 68 390 L 68 388 Q 65 392 63 388 L 65 385 L 63 386 L 61 386 L 64 384 L 61 383 L 61 370 L 63 368 L 61 367 L 63 366 L 64 369 L 66 368 Q 67 365 65 366 L 65 365 Z " /><path fill="rgb(0,190,0)" stroke="rgb(0,190,0)" stroke-width="0" opacity="1" d="M 280 366 L 281 368 L 280 366 Z " /><path fill="rgb(0,190,0)" stroke="rgb(0,190,0)" stroke-width="0" opacity="1" d="M 281 374 L 281 376 L 280 380 L 282 383 L 281 383 L 280 380 L 278 384 L 281 385 L 280 386 L 277 385 L 279 388 L 277 386 L 275 388 L 274 390 L 277 391 L 274 394 L 270 394 L 267 396 L 269 398 Q 267 395 266 397 L 263 399 L 264 400 L 262 399 L 257 402 L 260 403 L 261 403 L 256 406 L 254 403 L 251 404 L 253 405 L 252 406 L 91 406 L 87 404 L 87 406 L 83 404 L 85 404 L 88 403 L 83 400 L 81 401 L 84 399 L 86 401 L 94 403 L 95 405 L 248 405 Q 247 402 250 403 Q 265 399 274 389 L 281 374 Z M 255 402 L 256 404 L 258 404 L 255 402 Z " /><path fill="rgb(0,190,0)" stroke="rgb(0,190,0)" stroke-width="0" opacity="1" d="M 67 391 L 69 394 L 67 391 Z " /><path fill="rgb(210,243,223)" stroke="rgb(210,243,223)" stroke-width="0" opacity="0.996078431372549" d="M 180 121 L 183 123 L 179 126 L 178 128 L 178 142 L 172 153 L 169 155 Q 170 157 168 156 L 166 159 L 165 159 L 154 170 L 150 177 Q 147 176 148 180 L 145 185 L 145 191 L 142 201 L 145 206 Q 150 207 151 203 L 152 188 Q 156 185 155 180 Q 158 181 157 179 L 158 176 L 161 175 Q 160 172 163 173 L 176 160 L 176 158 Q 179 159 178 157 L 185 145 L 185 139 L 187 135 L 188 128 L 184 121 Q 187 120 186 123 L 189 126 L 189 136 Q 184 159 168 171 L 160 178 L 156 184 L 153 193 L 153 203 L 150 207 Q 143 208 142 205 Q 140 201 141 194 L 144 183 L 150 172 L 173 148 L 177 137 L 177 127 L 180 121 Z " /><path fill="rgb(210,243,223)" stroke="rgb(210,243,223)" stroke-width="0" opacity="0.996078431372549" d="M 213 152 L 218 155 Q 221 158 219 166 L 216 175 L 212 181 L 197 197 Q 194 201 195 210 L 192 213 L 189 214 L 184 211 L 183 203 L 187 191 L 195 180 L 203 174 Q 208 169 207 158 L 211 153 L 213 152 Z M 211 154 L 209 158 L 208 170 L 202 178 L 199 180 Q 200 182 198 181 Q 191 186 187 195 Q 188 200 185 202 L 185 209 Q 186 213 191 212 Q 196 209 194 198 L 199 191 Q 201 192 200 190 L 203 188 L 204 185 L 207 184 Q 206 181 209 182 L 215 173 L 218 158 Q 217 153 211 154 Z " /><path fill="rgb(210,243,223)" stroke="rgb(210,243,223)" stroke-width="0" opacity="0.996078431372549" d="M 92 226 L 251 226 L 255 230 L 255 243 L 258 245 L 279 245 L 288 252 L 291 256 L 292 257 L 292 282 Q 289 281 290 286 Q 287 301 277 310 L 269 315 L 256 318 L 253 321 L 252 328 L 249 335 L 236 352 L 232 355 L 111 355 L 102 348 Q 91 336 87 317 L 87 235 L 86 234 L 87 230 L 90 227 L 92 226 Z M 92 228 L 88 232 L 88 312 L 90 319 L 90 321 Q 95 340 109 351 Q 111 350 110 353 L 112 354 L 231 354 Q 240 346 246 336 Q 245 332 248 333 L 252 317 L 261 314 L 267 314 L 270 311 Q 273 312 274 310 Q 273 307 276 308 L 283 300 L 285 293 L 287 291 Q 286 286 288 285 L 287 283 L 290 270 Q 291 259 287 254 L 283 249 L 276 246 L 256 246 L 254 245 L 254 232 L 251 228 L 92 228 Z " /><path fill="rgb(210,243,223)" stroke="rgb(210,243,223)" stroke-width="0" opacity="0.996078431372549" d="M 256 255 L 276 255 L 281 259 L 281 283 Q 277 285 278 293 L 272 301 L 263 307 L 258 308 L 254 307 L 254 257 L 256 255 Z M 256 257 L 255 260 L 255 303 L 258 306 L 268 302 Q 274 297 277 289 L 280 273 Q 282 264 279 261 L 276 257 L 256 257 Z " /><path fill="rgb(210,243,223)" stroke="rgb(210,243,223)" stroke-width="0" opacity="0.996078431372549" d="M 67 368 L 276 368 L 279 372 L 280 376 Q 277 387 270 393 Q 261 401 248 403 L 248 405 L 238 405 L 238 404 L 249 400 L 251 400 L 255 400 L 258 397 L 261 397 Q 261 394 266 394 L 275 385 Q 275 379 278 378 L 278 373 L 274 369 L 68 369 L 63 375 Q 66 378 67 385 L 74 391 Q 76 390 75 393 L 82 397 L 85 397 L 88 400 L 94 400 L 105 405 L 94 405 Q 95 402 93 403 Q 78 399 69 390 L 64 381 L 62 381 L 62 370 Q 65 371 67 368 Z " /><path fill="rgb(254,254,254)" stroke="rgb(254,254,254)" stroke-width="0" opacity="0.996078431372549" d="M 183 121 Q 185 120 184 123 Q 188 125 187 127 Q 189 126 188 129 Q 185 130 187 132 L 185 139 L 185 145 L 179 156 L 177 157 L 178 158 Q 175 157 176 160 L 163 173 L 160 174 Q 162 175 160 176 Q 157 175 158 178 L 157 180 Q 154 179 155 184 L 152 188 L 151 201 L 150 202 L 151 203 L 148 206 L 145 206 L 146 204 L 143 203 L 144 201 L 142 201 Q 146 199 143 198 L 146 187 L 145 185 Q 148 183 147 180 L 149 180 L 148 177 Q 151 178 150 176 L 151 173 L 153 173 Q 152 170 155 171 L 154 170 L 165 159 L 167 159 Q 165 157 168 156 L 170 156 Q 168 154 171 153 Q 173 154 172 152 L 175 149 Q 174 143 178 142 L 178 127 L 180 127 Q 177 125 182 123 L 184 124 L 183 121 Z " /><path fill="rgb(254,254,254)" stroke="rgb(254,254,254)" stroke-width="0" opacity="0.996078431372549" d="M 212 154 L 216 155 L 218 158 L 218 162 L 214 172 Q 216 173 213 175 Q 214 177 212 176 Q 213 178 210 180 L 208 181 L 209 182 L 206 183 Q 208 184 206 185 L 203 186 Q 205 187 203 188 L 199 190 L 200 191 L 197 193 Q 192 197 194 208 L 191 212 L 185 209 L 186 205 L 185 202 L 187 200 L 187 195 L 190 189 L 192 189 L 191 188 L 198 181 Q 200 182 199 180 L 202 178 L 208 170 L 210 159 Q 208 157 211 156 L 212 156 L 212 154 Z " /><path fill="rgb(254,254,254)" stroke="rgb(254,254,254)" stroke-width="0" opacity="0.996078431372549" d="M 94 228 L 208 228 L 209 229 L 250 229 L 251 228 L 254 232 L 253 233 L 253 245 Q 256 244 256 247 L 274 247 L 276 246 L 277 248 L 279 248 L 282 250 L 283 249 L 287 254 L 287 255 Q 289 254 288 257 L 290 261 L 289 265 L 290 270 L 287 283 L 288 285 L 286 289 L 287 291 Q 284 292 285 296 L 283 297 L 283 299 L 282 301 L 280 302 L 281 303 L 278 306 Q 275 305 276 308 L 274 308 L 273 311 L 267 312 Q 268 315 264 314 L 262 314 L 252 317 L 250 321 L 250 324 L 250 326 L 249 330 L 247 331 L 248 333 L 246 333 Q 247 337 245 336 Q 246 338 243 340 L 231 354 L 112 354 L 110 353 Q 111 350 109 351 L 97 338 L 98 336 Q 95 337 96 335 L 93 330 L 91 325 L 92 323 L 90 319 L 88 309 L 89 308 L 89 233 Q 86 231 91 229 L 94 228 Z M 257 254 L 253 258 L 253 306 L 258 308 L 263 307 Q 264 303 266 306 L 266 304 L 271 301 Q 273 302 272 300 L 276 297 Q 274 294 279 292 L 278 290 L 282 282 L 281 278 L 281 259 L 279 256 L 276 256 L 276 254 L 257 254 Z " /><path fill="rgb(254,254,254)" stroke="rgb(254,254,254)" stroke-width="0" opacity="0.996078431372549" d="M 68 369 L 274 369 L 274 371 Q 276 369 278 373 L 277 376 L 278 378 L 274 384 L 275 385 L 270 390 Q 267 389 268 392 Q 266 396 265 393 L 261 397 L 260 396 L 254 400 L 250 399 L 250 401 L 248 401 Q 240 401 237 405 L 106 405 L 101 402 L 90 399 L 88 400 L 83 396 L 82 397 L 78 393 Q 76 395 75 393 Q 76 390 74 391 L 67 385 L 68 383 Q 64 384 66 380 L 64 377 L 65 375 L 63 375 L 65 374 L 64 373 L 68 369 Z " /><path fill="rgb(0,17,0)" stroke="rgb(0,17,0)" stroke-width="0" opacity="0.00784313725490196" d="M 0 0 L 190 0 L 190 2 L 183 3 L 176 7 L 166 8 L 160 13 L 154 13 L 150 17 L 148 17 L 143 19 L 142 18 L 138 22 Q 136 19 135 23 Q 129 24 126 28 L 126 29 L 121 29 L 121 31 L 119 33 L 112 35 Q 113 38 111 37 Q 109 41 104 40 L 103 44 L 101 45 L 99 45 Q 96 44 97 47 L 96 49 L 94 49 L 89 53 Q 90 55 87 54 L 82 58 L 77 65 L 72 67 L 70 71 Q 67 70 68 73 L 66 76 L 61 80 Q 62 82 60 81 L 56 84 Q 58 85 56 86 L 53 88 L 49 96 Q 46 95 47 98 L 46 100 L 44 100 Q 45 103 43 102 L 39 106 Q 41 107 38 109 L 33 118 L 30 120 L 29 126 L 28 127 Q 25 126 26 129 L 18 145 L 18 147 L 17 149 L 14 151 L 13 153 L 13 157 Q 15 161 12 160 L 9 163 L 8 174 L 7 176 Q 4 175 5 178 L 2 188 L 0 187 L 0 0 Z " /><path fill="rgb(0,17,0)" stroke="rgb(0,17,0)" stroke-width="0" opacity="0.00784313725490196" d="M 310 0 L 500 0 L 500 187 L 497 186 L 495 176 Q 492 177 493 175 L 492 174 L 491 163 L 489 160 Q 485 161 487 157 L 486 152 L 485 149 L 482 148 L 481 146 L 482 143 L 478 138 L 474 127 L 471 126 Q 472 120 469 118 Q 466 119 467 117 L 460 107 L 461 106 L 458 102 L 456 102 L 456 100 Q 453 101 454 99 L 453 96 L 450 95 Q 449 89 446 86 L 443 85 L 444 83 L 439 81 L 436 76 Q 433 77 434 75 L 432 71 L 428 69 Q 429 66 427 67 L 422 64 L 417 56 L 411 54 L 410 51 L 404 49 L 403 45 L 401 44 L 399 44 Q 396 45 397 43 L 396 40 L 388 37 Q 389 34 387 35 L 384 33 L 382 34 Q 383 31 381 32 L 379 29 L 376 29 L 364 21 L 363 22 L 359 18 L 357 18 L 352 16 L 351 17 L 347 13 L 341 13 L 335 8 L 325 7 L 318 3 L 310 2 L 310 0 Z " /><path fill="rgb(0,17,0)" stroke="rgb(0,17,0)" stroke-width="0" opacity="0.00784313725490196" d="M 2 312 L 5 324 Q 8 323 7 326 L 9 333 L 9 338 L 12 340 Q 14 339 13 344 L 14 349 L 16 351 L 18 353 L 19 355 L 18 358 L 22 363 L 26 373 L 29 375 Q 28 380 32 382 Q 34 381 33 384 L 40 394 L 39 395 L 43 398 Q 45 397 44 400 L 46 400 L 46 402 L 47 404 L 50 406 Q 51 411 55 414 L 57 416 L 57 417 L 61 419 L 65 424 Q 67 423 66 426 L 68 429 L 72 432 Q 71 434 74 433 L 78 437 L 84 444 L 89 446 L 91 449 L 96 451 L 97 455 L 100 456 L 102 456 Q 104 455 103 458 L 104 460 L 112 463 Q 111 466 114 465 L 117 467 L 118 467 Q 117 469 120 468 L 121 471 L 125 471 L 137 479 L 138 478 L 142 482 L 144 482 L 149 484 L 150 483 L 154 487 L 160 487 L 166 492 L 176 493 L 183 497 L 190 498 L 190 500 L 0 500 L 0 314 L 2 312 Z " /><path fill="rgb(0,17,0)" stroke="rgb(0,17,0)" stroke-width="0" opacity="0.00784313725490196" d="M 499 313 L 500 314 L 500 500 L 311 500 L 310 498 L 318 497 L 325 493 L 335 492 L 341 487 L 347 487 L 351 483 L 353 483 L 358 481 L 359 482 L 363 478 Q 364 480 366 477 L 370 476 L 376 471 L 379 471 L 381 468 Q 383 469 382 467 L 385 466 L 388 465 Q 387 462 390 463 Q 391 459 396 460 L 397 456 L 400 455 L 402 455 Q 404 456 403 454 L 404 451 L 407 451 L 411 448 Q 410 445 414 446 L 418 443 L 424 435 L 428 433 L 431 429 Q 433 430 432 428 L 434 424 L 439 421 Q 438 418 441 419 L 444 417 Q 442 415 445 414 L 447 413 L 452 404 Q 454 405 453 403 L 454 400 L 456 400 Q 455 397 458 398 L 461 395 Q 458 393 462 392 L 467 382 L 470 381 L 471 375 L 473 373 Q 475 374 474 372 L 482 356 L 482 354 L 484 351 L 486 350 L 487 348 L 487 344 Q 485 339 489 340 L 491 338 L 492 327 L 493 324 Q 496 325 495 323 L 499 313 Z " /><path fill="rgb(0,92,0)" stroke="rgb(0,92,0)" stroke-width="0" opacity="0.996078431372549" d="M 318 121 L 347 121 L 348 122 L 360 123 L 385 131 L 416 146 L 425 146 L 430 142 L 438 121 Q 443 120 443 122 L 443 219 Q 438 220 437 218 Q 426 173 397 146 Q 385 137 370 132 L 359 130 L 344 130 Q 326 134 317 147 L 308 163 L 300 189 L 298 207 L 297 208 L 297 220 L 296 221 L 296 243 L 297 244 L 297 260 L 298 261 L 299 278 L 304 303 L 312 324 L 320 333 L 332 340 L 346 341 L 357 338 L 365 331 L 367 327 L 368 316 L 369 315 L 369 272 L 366 256 L 361 249 L 349 246 L 332 246 L 330 245 Q 329 241 332 240 L 478 240 L 478 242 L 479 245 L 474 246 L 462 246 L 455 248 L 450 252 L 448 256 L 447 267 L 446 268 L 446 334 L 447 335 L 447 345 L 444 346 L 441 345 L 440 342 L 433 333 L 421 325 L 410 322 L 402 322 L 392 325 L 370 338 L 355 344 L 335 348 L 305 348 L 279 342 L 264 335 L 253 328 L 255 319 L 271 315 L 283 305 L 289 294 L 290 286 L 292 286 L 292 254 L 289 253 L 285 247 L 279 244 L 258 244 L 256 243 L 256 230 L 253 226 L 251 225 L 208 225 L 210 208 L 218 184 Q 228 164 245 150 Q 260 137 281 129 L 298 124 L 309 122 L 317 122 L 318 121 Z " /><path fill="rgb(0,92,0)" stroke="rgb(0,92,0)" stroke-width="0" opacity="0.996078431372549" d="M 258 257 L 274 257 L 279 262 L 279 274 L 276 289 Q 274 296 269 300 L 258 305 L 256 304 L 256 259 L 258 257 Z " /><path fill="rgb(255,255,255)" stroke="rgb(255,255,255)" stroke-width="0" opacity="1" d="M 183 123 L 185 125 L 184 124 L 182 125 L 183 123 Z " /><path fill="rgb(255,255,255)" stroke="rgb(255,255,255)" stroke-width="0" opacity="1" d="M 213 154 L 215 155 L 212 156 L 213 154 Z " /><path fill="rgb(255,255,255)" stroke="rgb(255,255,255)" stroke-width="0" opacity="1" d="M 168 157 L 167 159 L 168 157 Z " /><path fill="rgb(255,255,255)" stroke="rgb(255,255,255)" stroke-width="0" opacity="1" d="M 215 169 L 215 172 L 214 172 L 215 169 Z " /><path fill="rgb(255,255,255)" stroke="rgb(255,255,255)" stroke-width="0" opacity="1" d="M 146 204 L 147 206 L 146 204 Z " /><path fill="rgb(255,255,255)" stroke="rgb(255,255,255)" stroke-width="0" opacity="1" d="M 186 204 L 186 208 L 185 208 L 186 204 Z " /><path fill="rgb(255,255,255)" stroke="rgb(255,255,255)" stroke-width="0" opacity="1" d="M 188 210 L 190 211 L 191 211 L 189 212 L 188 210 Z " /><path fill="rgb(255,255,255)" stroke="rgb(255,255,255)" stroke-width="0" opacity="1" d="M 209 228 L 250 229 L 209 229 L 209 228 Z " /><path fill="rgb(255,255,255)" stroke="rgb(255,255,255)" stroke-width="0" opacity="1" d="M 89 232 L 89 308 L 88 308 L 89 232 Z " /><path fill="rgb(255,255,255)" stroke="rgb(255,255,255)" stroke-width="0" opacity="1" d="M 254 232 L 254 245 L 253 245 L 254 232 Z " /><path fill="rgb(255,255,255)" stroke="rgb(255,255,255)" stroke-width="0" opacity="1" d="M 256 246 L 274 247 L 256 247 L 256 246 Z " /><path fill="rgb(255,255,255)" stroke="rgb(255,255,255)" stroke-width="0" opacity="1" d="M 257 254 L 276 255 L 257 255 L 257 254 Z " /><path fill="rgb(255,255,255)" stroke="rgb(255,255,255)" stroke-width="0" opacity="1" d="M 254 257 L 254 306 L 253 306 L 254 257 Z " /><path fill="rgb(255,255,255)" stroke="rgb(255,255,255)" stroke-width="0" opacity="1" d="M 290 261 L 290 265 L 289 265 L 290 261 Z " /><path fill="rgb(255,255,255)" stroke="rgb(255,255,255)" stroke-width="0" opacity="1" d="M 282 278 L 282 282 L 281 282 L 282 278 Z " /><path fill="rgb(255,255,255)" stroke="rgb(255,255,255)" stroke-width="0" opacity="1" d="M 274 308 L 273 310 L 274 308 Z " /><path fill="rgb(255,255,255)" stroke="rgb(255,255,255)" stroke-width="0" opacity="1" d="M 251 320 L 251 324 L 250 324 L 251 320 Z " /><path fill="rgb(255,255,255)" stroke="rgb(255,255,255)" stroke-width="0" opacity="1" d="M 275 370 Q 279 371 278 376 L 277 376 L 275 370 Z " /><path fill="rgb(255,255,255)" stroke="rgb(255,255,255)" stroke-width="0" opacity="1" d="M 275 383 L 274 385 L 275 383 Z " /><path fill="rgb(255,255,255)" stroke="rgb(255,255,255)" stroke-width="0" opacity="1" d="M 77 392 L 78 394 L 77 392 Z " /><path fill="rgb(255,255,255)" stroke="rgb(255,255,255)" stroke-width="0" opacity="1" d="M 90 399 L 92 400 L 90 400 L 90 399 Z " /><path fill="rgb(255,255,255)" stroke="rgb(255,255,255)" stroke-width="0" opacity="1" d="M 251 399 L 253 400 L 251 400 L 251 399 Z " /></svg>